<svg xmlns="http://www.w3.org/2000/svg" xmlns:xlink="http://www.w3.org/1999/xlink" width="500" zoomAndPan="magnify" viewBox="0 0 375 374.999991" height="500" preserveAspectRatio="xMidYMid meet" version="1.0"><defs><g/><clipPath id="06fd83d61b"><path d="M 59 181 L 101 181 L 101 235.210938 L 59 235.210938 Z M 59 181 " clip-rule="nonzero"/></clipPath><clipPath id="9250b14263"><path d="M 47 171.460938 L 77 171.460938 L 77 222 L 47 222 Z M 47 171.460938 " clip-rule="nonzero"/></clipPath></defs><g clip-path="url(#06fd83d61b)"><path fill="#38b6ff" d="M 91.773438 181.546875 C 83.40625 190.859375 75.042969 200.164062 66.585938 209.578125 C 64.824219 207.714844 63.226562 206.027344 61.496094 204.199219 C 60.71875 205.992188 60.039062 207.414062 59.496094 208.890625 C 59.320312 209.363281 59.289062 210.160156 59.570312 210.488281 C 61.796875 213.089844 64.117188 215.613281 66.585938 218.363281 C 74.777344 208.953125 82.792969 199.746094 91.007812 190.308594 C 94.382812 196.945312 95.164062 203.597656 93.140625 210.417969 C 90.199219 220.339844 83.554688 226.441406 74.09375 229.25 L 74.09375 235.25 C 84.269531 233.71875 94.503906 224.667969 98.324219 213.824219 C 102.363281 202.359375 99.101562 188.636719 91.773438 181.546875 Z M 91.773438 181.546875 " fill-opacity="1" fill-rule="nonzero"/></g><path fill="#38b6ff" d="M 58.433594 228.59375 C 47.3125 225.085938 39.71875 214.09375 40.128906 202.367188 C 40.25 198.785156 40.808594 195.269531 42.71875 191.808594 C 45.589844 194.984375 48.285156 197.972656 51.128906 201.117188 C 51.890625 199.390625 52.648438 197.914062 53.164062 196.359375 C 53.351562 195.804688 53.183594 194.859375 52.800781 194.421875 C 49.246094 190.351562 45.609375 186.351562 41.871094 182.191406 C 33.558594 190.898438 31.867188 206.414062 37.804688 218.050781 C 41.898438 226.0625 51.175781 233.417969 58.433594 234.992188 Z M 58.433594 228.59375 " fill-opacity="1" fill-rule="nonzero"/><g clip-path="url(#9250b14263)"><path fill="#38b6ff" d="M 66.550781 171.460938 C 69.933594 179.351562 73.082031 186.644531 76.160156 193.96875 C 76.332031 194.378906 76.113281 195.140625 75.808594 195.535156 C 74.804688 196.832031 73.679688 198.03125 72.351562 199.558594 C 70.414062 195.109375 68.589844 190.914062 66.539062 186.203125 C 61.355469 198.277344 56.398438 209.824219 51.320312 221.660156 C 49.925781 220.574219 48.652344 219.6875 47.53125 218.640625 C 47.167969 218.300781 46.921875 217.410156 47.105469 216.976562 C 53.472656 201.972656 59.898438 186.992188 66.550781 171.460938 Z M 66.550781 171.460938 " fill-opacity="1" fill-rule="nonzero"/></g><g fill="#ffffff" fill-opacity="1"><g transform="translate(111.298572, 232.567737)"><g><path d="M 16.214844 0 L 16.214844 -0.246094 C 5.371094 -4.199219 7.128906 -24.417969 8.351562 -33.160156 C 9.328125 -40.144531 9.328125 -40.097656 10.304688 -46.886719 C 12.0625 -45.46875 12.355469 -43.074219 12.894531 -39.167969 C 13.429688 -34.382812 13.820312 -31.304688 14.601562 -25.835938 C 15.53125 -20.367188 16.410156 -0.683594 27.203125 -0.683594 C 32.234375 -0.683594 32.769531 -4.347656 32.769531 -6.542969 C 32.769531 -13.625 28.132812 -30.230469 28.132812 -37.703125 C 28.132812 -41.21875 28.71875 -46.203125 32.332031 -46.203125 C 35.699219 -46.203125 35.652344 -40.828125 36.238281 -36.53125 C 38.144531 -22.613281 39.316406 -14.261719 41.269531 0 L 48.59375 0 C 46.640625 -14.261719 45.617188 -22.5625 43.5625 -36.582031 C 42.683594 -42.636719 42.441406 -49.328125 35.945312 -49.328125 C 30.328125 -49.328125 26.957031 -45.03125 27.253906 -37.65625 C 27.546875 -30.671875 29.644531 -21.929688 30.378906 -17.335938 C 31.5 -10.160156 33.0625 -4.101562 29.15625 -4.101562 C 26.175781 -4.101562 24.125 -11.136719 23.34375 -16.164062 C 21.78125 -26.371094 21 -32.722656 19.390625 -44.050781 C 18.949219 -47.128906 17.335938 -48.839844 15.042969 -48.839844 L 4.492188 -48.839844 L 4.492188 -48.59375 C 5.46875 -48.496094 6.300781 -48.398438 7.03125 -48.253906 C 10.453125 -47.03125 9.085938 -43.5625 8.59375 -40.632812 L 0.976562 0 Z M 16.214844 0 "/></g></g></g><g fill="#ffffff" fill-opacity="1"><g transform="translate(160.868132, 232.567737)"><g><path d="M 3.417969 -10.746094 C 3.417969 -4.785156 7.519531 0.488281 15.285156 0.488281 C 30.816406 0.488281 37.898438 -17.726562 37.898438 -29.5 L 37.898438 -48.839844 L 30.816406 -48.839844 L 30.867188 -10.792969 C 30.867188 -5.859375 24.175781 -5.859375 17.679688 -5.859375 C 8.839844 -5.859375 4.296875 -7.472656 4.296875 -13.382812 C 4.296875 -19.144531 7.765625 -37.167969 13.578125 -48.839844 L 3.417969 -48.839844 Z M 3.417969 -10.746094 "/></g></g></g><g fill="#ffffff" fill-opacity="1"><g transform="translate(201.695869, 232.567737)"><g><path d="M 16.996094 0.488281 C 26.8125 0.488281 35.894531 -5.371094 35.894531 -14.894531 C 35.894531 -24.078125 28.328125 -28.667969 17.335938 -29.449219 C 11.769531 -29.839844 2.832031 -29.304688 2.832031 -34.917969 C 2.832031 -40.292969 10.402344 -42.34375 17.53125 -42.34375 C 23.785156 -42.34375 30.28125 -40.683594 33.113281 -38.632812 L 35.113281 -46.054688 C 32.085938 -48.496094 25.542969 -49.328125 20.511719 -49.328125 C 6.445312 -49.328125 2.003906 -41.511719 2.003906 -35.503906 C 2.003906 -27.496094 6.054688 -22.90625 18.414062 -20.804688 C 25.492188 -19.585938 34.96875 -19.339844 34.96875 -13.527344 C 34.96875 -7.375 25.933594 -6.25 20.609375 -6.25 C 13.675781 -6.25 9.132812 -8.691406 3.90625 -11.917969 L 0.976562 -5.128906 C 3.808594 -2.296875 10.355469 0.488281 16.996094 0.488281 Z M 16.996094 0.488281 "/></g></g></g><g fill="#ffffff" fill-opacity="1"><g transform="translate(238.567807, 232.567737)"><g><path d="M 1.464844 -40.828125 C 4.6875 -44.101562 10.84375 -47.714844 15.238281 -48.058594 L 15.238281 0 L 22.320312 0 L 22.320312 -48.058594 C 26.714844 -47.714844 32.867188 -44.101562 36.09375 -40.828125 L 36.09375 -48.839844 L 1.464844 -48.839844 Z M 1.464844 -40.828125 "/></g></g></g><g fill="#ffffff" fill-opacity="1"><g transform="translate(276.123465, 232.567737)"><g><path d="M 3.417969 0 L 10.5 0 L 10.5 -24.371094 L 16.554688 -24.371094 C 22.320312 -24.371094 26.566406 -22.953125 27.9375 -19.878906 L 27.9375 -29.597656 C 26.566406 -26.519531 22.320312 -25.101562 16.554688 -25.101562 L 10.5 -25.101562 L 10.5 -48.105469 L 14.261719 -48.105469 C 25.492188 -48.105469 31.257812 -44.296875 34.625 -40.828125 L 34.625 -48.839844 L 3.417969 -48.839844 Z M 3.417969 0 "/></g></g></g><g fill="#ffffff" fill-opacity="1"><g transform="translate(311.725639, 232.567737)"><g><path d="M 11.625 0 C 11.085938 -2.246094 10.746094 -9.621094 10.988281 -17.726562 L 27.300781 -17.726562 C 28.863281 -12.355469 30.523438 -6.738281 32.574219 0 L 40.046875 0 C 35.015625 -16.652344 31.988281 -26.519531 27.058594 -42.78125 C 26.03125 -46.152344 24.078125 -49.328125 20.511719 -49.328125 C 16.945312 -49.328125 14.992188 -46.152344 13.96875 -42.78125 C 9.035156 -26.519531 6.054688 -16.652344 0.976562 0 Z M 11.039062 -18.460938 C 11.476562 -30.816406 13.234375 -44.589844 17.628906 -44.589844 C 18.707031 -44.589844 19.242188 -43.855469 19.585938 -42.78125 C 22.5625 -33.40625 24.761719 -26.128906 27.058594 -18.460938 Z M 11.039062 -18.460938 "/></g></g></g></svg>